<svg width="40" height="40" viewBox="0 0 40 40" fill="none" xmlns="http://www.w3.org/2000/svg">
<g id="backend" clip-path="url(#clip0_7_103)">
<path id="Vector" d="M17.4313 35.9689L13.6188 34.8626C13.2188 34.7501 12.9938 34.3314 13.1063 33.9314L21.6375 4.54387C21.75 4.14387 22.1688 3.91887 22.5688 4.03137L26.3813 5.13762C26.7813 5.25012 27.0063 5.66887 26.8938 6.06887L18.3625 35.4564C18.2438 35.8564 17.8313 36.0876 17.4313 35.9689ZM10.3063 28.9564L13.025 26.0564C13.3125 25.7501 13.2938 25.2626 12.975 24.9814L7.31251 20.0001L12.975 15.0189C13.2938 14.7376 13.3188 14.2501 13.025 13.9439L10.3063 11.0439C10.025 10.7439 9.55 10.7251 9.24375 11.0126L0.237506 19.4501C-0.0812439 19.7439 -0.0812439 20.2501 0.237506 20.5439L9.24375 28.9876C9.55 29.2751 10.025 29.2626 10.3063 28.9564ZM30.7563 28.9939L39.7625 20.5501C40.0813 20.2564 40.0813 19.7501 39.7625 19.4564L30.7563 11.0064C30.4563 10.7251 29.9813 10.7376 29.6938 11.0376L26.975 13.9376C26.6875 14.2439 26.7063 14.7314 27.025 15.0126L32.6875 20.0001L27.025 24.9814C26.7063 25.2626 26.6813 25.7501 26.975 26.0564L29.6938 28.9564C29.975 29.2626 30.45 29.2751 30.7563 28.9939Z" fill="#016A69"/>
</g>
<defs>
<clipPath id="clip0_7_103">
<rect width="40" height="40" fill="white"/>
</clipPath>
</defs>
</svg>
