<svg width="40" height="40" viewBox="0 0 40 40" fill="none" xmlns="http://www.w3.org/2000/svg">
<g id="code-branch">
<path id="Vector" d="M35 11.25C35 7.79687 32.2031 5 28.75 5C25.2969 5 22.5 7.79687 22.5 11.25C22.5 14.0938 24.3984 16.4922 26.9922 17.25C26.9453 18.5078 26.6641 19.4766 26.1328 20.1328C24.9297 21.6328 22.2813 21.8828 19.4766 22.1406C17.2734 22.3437 14.9922 22.5625 13.125 23.4609V12.2109C15.6641 11.4141 17.5 9.04687 17.5 6.25C17.5 2.79687 14.7031 0 11.25 0C7.79687 0 5 2.79687 5 6.25C5 9.04687 6.83594 11.4141 9.375 12.2109V27.7813C6.83594 28.5859 5 30.9531 5 33.75C5 37.2031 7.79687 40 11.25 40C14.7031 40 17.5 37.2031 17.5 33.75C17.5 31.0938 15.8438 28.8203 13.5 27.9219C13.7422 27.5156 14.1094 27.1562 14.6641 26.875C15.9297 26.2344 17.8203 26.0625 19.8281 25.875C23.125 25.5703 26.8594 25.2187 29.0625 22.4844C30.1562 21.125 30.7109 19.375 30.75 17.1797C33.2188 16.3359 35 14 35 11.25ZM11.25 5C11.9375 5 12.5 5.5625 12.5 6.25C12.5 6.9375 11.9375 7.5 11.25 7.5C10.5625 7.5 10 6.9375 10 6.25C10 5.5625 10.5625 5 11.25 5ZM11.25 35C10.5625 35 10 34.4375 10 33.75C10 33.0625 10.5625 32.5 11.25 32.5C11.9375 32.5 12.5 33.0625 12.5 33.75C12.5 34.4375 11.9375 35 11.25 35ZM28.75 10C29.4375 10 30 10.5625 30 11.25C30 11.9375 29.4375 12.5 28.75 12.5C28.0625 12.5 27.5 11.9375 27.5 11.25C27.5 10.5625 28.0625 10 28.75 10Z" fill="#016A69"/>
</g>
</svg>
