<svg width="40" height="40" viewBox="0 0 40 40" fill="none" xmlns="http://www.w3.org/2000/svg">
<g id="desktop" clip-path="url(#clip0_7_105)">
<path id="Vector" d="M36.6667 2.22217H3.33333C1.49306 2.22217 0 3.71522 0 5.5555V27.7777C0 29.618 1.49306 31.1111 3.33333 31.1111H16.6667L15.5556 34.4444H10.5556C9.63194 34.4444 8.88889 35.1874 8.88889 36.1111C8.88889 37.0347 9.63194 37.7777 10.5556 37.7777H29.4444C30.3681 37.7777 31.1111 37.0347 31.1111 36.1111C31.1111 35.1874 30.3681 34.4444 29.4444 34.4444H24.4444L23.3333 31.1111H36.6667C38.5069 31.1111 40 29.618 40 27.7777V5.5555C40 3.71522 38.5069 2.22217 36.6667 2.22217ZM35.5556 26.6666H4.44444V6.66661H35.5556V26.6666Z" fill="#016A69"/>
</g>
<defs>
<clipPath id="clip0_7_105">
<rect width="40" height="40" fill="white"/>
</clipPath>
</defs>
</svg>
