<svg width="41" height="41" viewBox="0 0 41 41" fill="none" xmlns="http://www.w3.org/2000/svg">
<g clip-path="url(#clip0_7_43)">
<path d="M16.0925 21.3434C16.4831 21.734 17.1162 21.734 17.5068 21.3434L18.2137 20.6365C18.6043 20.2459 18.6043 19.6127 18.2137 19.2221L15.9812 16.9902L18.2131 14.7577C18.6037 14.3671 18.6037 13.734 18.2131 13.3434L17.5062 12.6365C17.1156 12.2459 16.4825 12.2459 16.0918 12.6365L12.4456 16.2827C12.055 16.6734 12.055 17.3065 12.4456 17.6971L16.0925 21.3434ZM22.0931 20.6371L22.8 21.344C23.1906 21.7346 23.8237 21.7346 24.2143 21.344L27.8606 17.6977C28.2512 17.3071 28.2512 16.674 27.8606 16.2834L24.2143 12.6371C23.8237 12.2465 23.1906 12.2465 22.8 12.6371L22.0931 13.344C21.7025 13.7346 21.7025 14.3677 22.0931 14.7584L24.325 16.9902L22.0931 19.2227C21.7025 19.6134 21.7025 20.2465 22.0931 20.6371ZM39.1531 30.9902H23.9993C23.9531 32.2284 23.08 32.9902 21.9531 32.9902H18.1531C16.985 32.9902 16.0893 31.8984 16.105 30.9902H1.1531C0.603095 30.9902 0.153095 31.4402 0.153095 31.9902V32.9902C0.153095 35.1902 1.9531 36.9902 4.1531 36.9902H36.1531C38.3531 36.9902 40.1531 35.1902 40.1531 32.9902V31.9902C40.1531 31.4402 39.7031 30.9902 39.1531 30.9902ZM36.1531 7.99023C36.1531 6.34023 34.8031 4.99023 33.1531 4.99023H7.1531C5.5031 4.99023 4.1531 6.34023 4.1531 7.99023V28.9902H36.1531V7.99023ZM32.1531 24.9902H8.1531V8.99023H32.1531V24.9902Z" fill="#016A69"/>
</g>
<defs>
<clipPath id="clip0_7_43">
<rect width="40" height="40" fill="white" transform="translate(0.153095 0.989746)"/>
</clipPath>
</defs>
</svg>
