<svg width="247" height="54" viewBox="0 0 247 54" fill="none" xmlns="http://www.w3.org/2000/svg">
<rect width="247" height="54" fill="#FF4747"/>
<g id="homepage" clip-path="url(#clip0_0_1)">
<rect width="1440" height="6042" transform="translate(-82 -32)" fill="#FEFEFE"/>
<g id="navbar">
<g id="navlinnks">
<rect id="navbar_2" x="-82" y="-32" width="1440" height="118" fill="white"/>
</g>
<g id="logoipsum-222 (1) 1">
<path id="Vector" d="M37.5691 42.5252L5.45906 20.3757C2.2051 18.1313 3.31123 13.4579 7.36883 12.359L41.496 3.09645C42.2189 2.8356 42.9936 2.75092 43.7559 2.84945C44.518 2.94798 45.2458 3.22688 45.8786 3.66299C46.5114 4.09911 47.0311 4.67986 47.3945 5.35706C47.7578 6.03425 47.9545 6.78835 47.9681 7.55677L45.9456 38.967C45.7057 42.6952 40.823 44.7697 37.5691 42.5252Z" fill="#E9327C"/>
<path id="Vector_2" d="M27.3848 47.9931L8.46777 10.9987C8.03534 10.1524 7.84506 9.20303 7.91789 8.25543C7.99072 7.30783 8.32385 6.39874 8.88051 5.62844C9.43719 4.85814 10.1958 4.25653 11.0727 3.88997C11.9495 3.52341 12.9106 3.40614 13.8499 3.5511L48.9078 8.96181C49.7148 9.0864 50.4809 9.40079 51.143 9.87913C51.8049 10.3575 52.3438 10.9861 52.7155 11.7134C53.0871 12.4406 53.2809 13.2457 53.2808 14.0624C53.2806 14.8791 53.0866 15.6841 52.7148 16.4112L36.565 47.9949C36.1313 48.8388 35.4733 49.5469 34.6634 50.0411C33.8535 50.5354 32.9231 50.7967 31.9743 50.7966C31.0255 50.7964 30.0952 50.5347 29.2854 50.0402C28.4757 49.5455 27.8181 48.8372 27.3848 47.9931Z" fill="#1DACE3"/>
<path id="Vector_3" d="M47.8822 8.80278L30.4061 6.10547L8.94928 11.9314L17.5137 28.6863L37.5691 42.5254C38.0115 42.8274 38.4982 43.0586 39.0117 43.2109L46.6293 28.314L47.8822 8.80278Z" fill="#001A49"/>
<path id="Vector_4" d="M136.403 13.1267C136.403 12.4771 136.596 11.8421 136.956 11.302C137.317 10.7619 137.83 10.3409 138.431 10.0923C139.031 9.84371 139.691 9.77867 140.328 9.90539C140.965 10.0321 141.55 10.3449 142.01 10.8043C142.469 11.2636 142.782 11.8488 142.909 12.4859C143.035 13.123 142.97 13.7834 142.722 14.3836C142.473 14.9837 142.052 15.4966 141.512 15.8575C140.972 16.2184 140.337 16.411 139.687 16.411C138.819 16.4022 137.989 16.0533 137.375 15.4393C136.761 14.8253 136.412 13.995 136.403 13.1267ZM136.951 18.0165H142.426V36.2623H136.951V18.0165Z" fill="#001A49"/>
<path id="Vector_5" d="M166.07 27.1393C166.133 28.3454 165.958 29.5521 165.554 30.6901C165.149 31.8279 164.524 32.8748 163.713 33.7702C162.903 34.6655 161.924 35.3918 160.831 35.9075C159.739 36.423 158.556 36.7176 157.35 36.7741C156.335 36.8293 155.321 36.6582 154.38 36.2732C153.44 35.888 152.597 35.2986 151.912 34.5476V43.5613H146.439V18.0165H151.912V19.7311C152.597 18.9803 153.44 18.3913 154.38 18.0064C155.321 17.6217 156.335 17.4508 157.35 17.5063C158.556 17.5627 159.739 17.857 160.831 18.3723C161.923 18.8878 162.903 19.6139 163.713 20.5092C164.524 21.4045 165.149 22.451 165.554 23.589C165.958 24.7268 166.133 25.9333 166.07 27.1393ZM160.596 27.1393C160.575 26.2851 160.302 25.4562 159.812 24.7562C159.321 24.0563 158.636 23.5165 157.84 23.2045C157.045 22.8924 156.175 22.822 155.339 23.0019C154.504 23.1818 153.74 23.604 153.144 24.2158C152.547 24.8276 152.144 25.6019 151.985 26.4415C151.827 27.2811 151.919 28.149 152.251 28.9364C152.583 29.7237 153.14 30.3956 153.852 30.8682C154.564 31.3407 155.4 31.5925 156.254 31.5925C156.841 31.619 157.427 31.5209 157.973 31.3051C158.519 31.089 159.014 30.7599 159.424 30.3394C159.834 29.9188 160.15 29.4164 160.352 28.8648C160.555 28.3133 160.638 27.7252 160.596 27.1393Z" fill="#001A49"/>
<path id="Vector_6" d="M182.964 30.786C182.964 34.9832 179.315 36.7712 175.374 36.7712C173.782 36.9153 172.183 36.5783 170.784 35.8038C169.386 35.0295 168.252 33.8532 167.529 32.4273L172.272 29.7282C172.465 30.3874 172.878 30.9603 173.443 31.3512C174.007 31.7421 174.689 31.9273 175.374 31.876C176.688 31.876 177.343 31.4733 177.343 30.7448C177.343 28.7366 168.366 29.7962 168.366 23.4816C168.366 19.5045 171.722 17.4981 175.526 17.4981C176.953 17.4533 178.365 17.7918 179.616 18.4784C180.868 19.165 181.912 20.1744 182.64 21.4017L177.971 23.9201C177.767 23.4411 177.426 23.0328 176.991 22.7465C176.556 22.4599 176.047 22.3079 175.526 22.3092C174.577 22.3092 173.994 22.6672 173.994 23.3312C173.988 25.4253 182.964 24.0382 182.964 30.786Z" fill="#001A49"/>
<path id="Vector_7" d="M166.07 27.1393C166.133 28.3454 165.958 29.5521 165.554 30.6901C165.149 31.8279 164.524 32.8748 163.713 33.7702C162.903 34.6655 161.924 35.3918 160.831 35.9075C159.739 36.423 158.556 36.7176 157.35 36.7741C156.335 36.8293 155.321 36.6582 154.38 36.2732C153.44 35.888 152.597 35.2986 151.912 34.5476V43.5613H146.439V18.0165H151.912V19.7311C152.597 18.9803 153.44 18.3913 154.38 18.0064C155.321 17.6217 156.335 17.4508 157.35 17.5063C158.556 17.5627 159.739 17.857 160.831 18.3723C161.923 18.8878 162.903 19.6139 163.713 20.5092C164.524 21.4045 165.149 22.451 165.554 23.589C165.958 24.7268 166.133 25.9333 166.07 27.1393ZM160.596 27.1393C160.575 26.2851 160.302 25.4562 159.812 24.7562C159.321 24.0563 158.636 23.5165 157.84 23.2045C157.045 22.8924 156.175 22.822 155.339 23.0019C154.504 23.1818 153.74 23.604 153.144 24.2158C152.547 24.8276 152.144 25.6019 151.985 26.4415C151.827 27.2811 151.919 28.149 152.251 28.9364C152.583 29.7237 153.14 30.3956 153.852 30.8682C154.564 31.3407 155.4 31.5925 156.254 31.5925C156.841 31.619 157.427 31.5209 157.973 31.3051C158.519 31.089 159.014 30.7599 159.424 30.3394C159.834 29.9188 160.15 29.4164 160.352 28.8648C160.555 28.3133 160.638 27.7252 160.596 27.1393Z" fill="#001A49"/>
<path id="Vector_8" d="M182.964 30.786C182.964 34.9832 179.315 36.7712 175.374 36.7712C173.782 36.9153 172.183 36.5783 170.784 35.8038C169.386 35.0295 168.252 33.8532 167.529 32.4273L172.272 29.7282C172.465 30.3874 172.878 30.9603 173.443 31.3512C174.007 31.7421 174.689 31.9273 175.374 31.876C176.688 31.876 177.343 31.4733 177.343 30.7448C177.343 28.7366 168.366 29.7962 168.366 23.4816C168.366 19.5045 171.722 17.4981 175.526 17.4981C176.953 17.4533 178.365 17.7918 179.616 18.4784C180.868 19.165 181.912 20.1744 182.64 21.4017L177.971 23.9201C177.767 23.4411 177.426 23.0328 176.991 22.7465C176.556 22.4599 176.047 22.3079 175.526 22.3092C174.577 22.3092 173.994 22.6672 173.994 23.3312C173.988 25.4253 182.964 24.0382 182.964 30.786Z" fill="#001A49"/>
<path id="Vector_9" d="M202.97 18.0166V36.2624H197.496V34.5441C196.864 35.3011 196.061 35.8974 195.153 36.2846C194.248 36.6715 193.261 36.8382 192.277 36.7707C188.592 36.7707 185.454 34.1432 185.454 29.2157V18.0166H190.927V28.4174C190.881 28.8524 190.931 29.2922 191.072 29.706C191.214 30.1198 191.443 30.498 191.745 30.8141C192.048 31.1302 192.415 31.3764 192.821 31.5359C193.229 31.6956 193.666 31.7643 194.103 31.7376C196.109 31.7376 197.503 30.5706 197.503 27.9789V18.0166H202.97Z" fill="#001A49"/>
<path id="Vector_10" d="M234.342 25.0577V36.2622H228.869V25.5338C228.869 23.7099 227.992 22.5412 226.241 22.5412C224.416 22.5412 223.395 23.8191 223.395 25.9723V36.2622H217.92V25.5338C217.92 23.7099 217.045 22.5412 215.293 22.5412C213.469 22.5412 212.447 23.8191 212.447 25.9723V36.2622H206.973V18.0164H212.456V19.6881C213.023 18.9437 213.768 18.3534 214.622 17.9709C215.475 17.5886 216.413 17.4264 217.346 17.4992C218.282 17.4534 219.216 17.651 220.054 18.073C220.891 18.4948 221.606 19.1265 222.126 19.9065C222.733 19.0905 223.537 18.4415 224.462 18.0205C225.388 17.5995 226.406 17.4201 227.419 17.4992C231.607 17.5063 234.342 20.4971 234.342 25.0577Z" fill="#001A49"/>
<path id="Vector_11" d="M238.98 17.9038C241.224 17.9038 243.043 16.0847 243.043 13.8408C243.043 11.5969 241.224 9.77783 238.98 9.77783C236.735 9.77783 234.917 11.5969 234.917 13.8408C234.917 16.0847 236.735 17.9038 238.98 17.9038Z" fill="#001A49"/>
<path id="Vector_12" d="M61.673 9.62402H67.1482V36.2625H61.673V9.62402ZM70.2482 27.1396C70.2423 25.2266 70.804 23.355 71.8623 21.7617C72.9207 20.1681 74.4281 18.9246 76.1936 18.1884C77.9593 17.4522 79.9034 17.2564 81.7805 17.6259C83.6573 17.9954 85.3824 18.9135 86.7371 20.2641C88.0918 21.6145 89.0154 23.3365 89.3907 25.2123C89.7661 27.0881 89.5765 29.0329 88.8459 30.8008C88.1153 32.5686 86.8765 34.08 85.2864 35.1433C83.6963 36.2067 81.8265 36.7744 79.9135 36.7744C78.643 36.7878 77.3826 36.5482 76.2058 36.0692C75.0291 35.5903 73.9595 34.8815 73.0597 33.9846C72.1598 33.0875 71.4478 32.0202 70.9651 30.845C70.4823 29.6698 70.2388 28.4101 70.2482 27.1396ZM84.116 27.1396C84.0946 26.3143 83.8304 25.5139 83.3562 24.8382C82.8823 24.1626 82.2195 23.6415 81.4509 23.3405C80.6822 23.0396 79.842 22.9718 79.0352 23.1459C78.2283 23.3199 77.4907 23.7282 76.9146 24.3192C76.3384 24.9104 75.9495 25.6582 75.7961 26.4692C75.6429 27.2803 75.732 28.1185 76.0527 28.8792C76.3733 29.6397 76.9112 30.2889 77.5988 30.7455C78.2865 31.2021 79.0935 31.4457 79.9188 31.446C80.4841 31.4621 81.0466 31.3608 81.5707 31.1487C82.0949 30.9368 82.5694 30.6184 82.9644 30.2137C83.3595 29.8092 83.6664 29.3272 83.8658 28.7981C84.0652 28.2689 84.1529 27.7042 84.1232 27.1396H84.116ZM111.41 18.0114V35.3461C111.41 41.4764 106.629 44.0663 101.777 44.0663C100.069 44.1952 98.3581 43.8513 96.8324 43.0724C95.3069 42.2936 94.0252 41.1096 93.128 39.6507L97.7977 36.9498C98.1746 37.7112 98.7751 38.3395 99.5188 38.7506C100.262 39.1616 101.114 39.3357 101.959 39.2498C102.499 39.3234 103.048 39.275 103.566 39.108C104.085 38.941 104.559 38.66 104.954 38.2852C105.349 37.9106 105.655 37.4521 105.849 36.9432C106.043 36.4345 106.121 35.8886 106.076 35.3461V33.6672C105.435 34.4512 104.619 35.0741 103.693 35.4859C102.768 35.8978 101.759 36.0871 100.747 36.0388C98.3391 35.9638 96.0544 34.9545 94.3773 33.2244C92.7002 31.4944 91.7623 29.1795 91.7623 26.77C91.7623 24.3603 92.7002 22.0455 94.3773 20.3155C96.0544 18.5854 98.3391 17.576 100.747 17.5012C101.759 17.4528 102.768 17.6421 103.693 18.054C104.619 18.4658 105.435 19.0887 106.076 19.8728V18.0114H111.41ZM106.083 26.7691C106.119 25.8878 105.891 25.016 105.427 24.2655C104.964 23.515 104.287 22.9202 103.482 22.5578C102.678 22.1953 101.784 22.0817 100.915 22.2315C100.046 22.3813 99.2414 22.7876 98.6049 23.3983C97.9684 24.009 97.5292 24.796 97.3438 25.6582C97.1582 26.5205 97.2348 27.4185 97.5638 28.237C97.8926 29.0553 98.4589 29.7566 99.1895 30.2506C99.9201 30.7446 100.782 31.0088 101.664 31.0093C102.239 31.0496 102.816 30.9692 103.358 30.7732C103.9 30.5772 104.395 30.2699 104.812 29.871C105.228 29.4722 105.556 28.9905 105.775 28.4573C105.994 27.924 106.099 27.3507 106.083 26.7745V26.7691ZM114.51 27.1271C114.504 25.2141 115.065 23.3425 116.124 21.7491C117.182 20.1556 118.689 18.912 120.455 18.1759C122.221 17.4397 124.165 17.2439 126.042 17.6134C127.919 17.9829 129.644 18.9009 130.998 20.2516C132.353 21.602 133.277 23.324 133.652 25.1998C134.027 27.0756 133.838 29.0204 133.107 30.7883C132.377 32.5561 131.138 34.0674 129.548 35.1308C127.958 36.1942 126.088 36.7619 124.175 36.7619C122.905 36.7753 121.646 36.536 120.47 36.0578C119.294 35.5797 118.225 34.872 117.326 33.9763C116.426 33.0807 115.714 32.015 115.23 30.8411C114.747 29.6673 114.502 28.409 114.51 27.1396V27.1271ZM128.377 27.1271C128.356 26.3014 128.092 25.5003 127.618 24.8239C127.144 24.1477 126.481 23.6263 125.712 23.3249C124.943 23.0235 124.102 22.9557 123.295 23.1298C122.487 23.3038 121.749 23.7122 121.173 24.3036C120.596 24.8952 120.207 25.6435 120.054 26.455C119.9 27.2665 119.99 28.1054 120.311 28.8663C120.632 29.6274 121.17 30.2767 121.858 30.7335C122.547 31.1901 123.354 31.4335 124.18 31.4335C124.744 31.4484 125.304 31.3469 125.827 31.1351C126.349 30.9234 126.822 30.6059 127.216 30.2028C127.61 29.7997 127.917 29.3195 128.117 28.7924C128.317 28.2653 128.405 27.7025 128.377 27.1396V27.1271Z" fill="#001A49"/>
</g>
</g>
</g>
<defs>
<clipPath id="clip0_0_1">
<rect width="1440" height="6042" fill="white" transform="translate(-82 -32)"/>
</clipPath>
</defs>
</svg>
